# xmcd
#
# Track frame offsets:
#	182
#	13915
#	29745
#	44467
#	58202
#	70825
#	86070
#	97210
#	108550
#	125580
#	145905
#	161935
#	174887
#	186630
#
# Disc length: 2700 seconds
#
# Revision: 1
# Processed by: cddbd v1.5.2PL0 Copyright (c) Steve Scherf et al.
# Submitted via: audiograbber 1.83.01
#
DISCID=db0a8a0e
DTITLE=Various Artist - Live at Gilley's - Volume 3
DYEAR=1998
DGENRE=Country
TTITLE0=Bobby Bare - Four Strong Winds - 500 Miles From Home
TTITLE1=Mel Tills - Good Woman Blues
TTITLE2=Rosanne Cash - Seven Year Ache
TTITLE3=Johnny Paycheck - (Don't Take Her) She's All I Got
TTITLE4=Dave and Sugar - The Door Is Always Open
TTITLE5=The Kendalls - Movin' Train
TTITLE6=Bobby Goldsboro - Watching Scotty Grow
TTITLE7=BJ Thomas - Raindrops Keep Fallin' On My Head
TTITLE8=Lacy J Dalton - Takin' It Easy
TTITLE9=Bellamy Brothers - If I Said You Had A Beautiful Body Would You Hold It
TTITLE9=Against Me
TTITLE10=Mel Tillis - Coca-Cola Cowboy
TTITLE11=The Kendalls - Thank God For The Radio
TTITLE12=Moe Bandy - It's A Cheating Situation
TTITLE13=Michael Martin Murphey - Wildfire
EXTD=
EXTT0=
EXTT1=
EXTT2=
EXTT3=
EXTT4=
EXTT5=
EXTT6=
EXTT7=
EXTT8=
EXTT9=
EXTT10=
EXTT11=
EXTT12=
EXTT13=
PLAYORDER=
